<svg xmlns="http://www.w3.org/2000/svg" viewBox="0 0 100 100">
  <defs>
    <radialGradient id="bg" cx="38%" cy="36%" r="68%">
      <stop offset="0%" stop-color="#E09444"/>
      <stop offset="100%" stop-color="#9E5A14"/>
    </radialGradient>
  </defs>
  <circle cx="50" cy="50" r="50" fill="url(#bg)"/>
  <circle cx="50" cy="50" r="45" fill="none" stroke="white" stroke-width="1.2" opacity="0.38"/>
  <g fill="white" opacity="0.90">
    <path d="M50,50 Q40,34 50,12 Q60,34 50,50" transform="rotate(0,50,50)"/>
    <path d="M50,50 Q40,34 50,12 Q60,34 50,50" transform="rotate(45,50,50)"/>
    <path d="M50,50 Q40,34 50,12 Q60,34 50,50" transform="rotate(90,50,50)"/>
    <path d="M50,50 Q40,34 50,12 Q60,34 50,50" transform="rotate(135,50,50)"/>
    <path d="M50,50 Q40,34 50,12 Q60,34 50,50" transform="rotate(180,50,50)"/>
    <path d="M50,50 Q40,34 50,12 Q60,34 50,50" transform="rotate(225,50,50)"/>
    <path d="M50,50 Q40,34 50,12 Q60,34 50,50" transform="rotate(270,50,50)"/>
    <path d="M50,50 Q40,34 50,12 Q60,34 50,50" transform="rotate(315,50,50)"/>
  </g>
  <g fill="white" opacity="0.52">
    <path d="M50,50 L49.2,30 Q50,21 50.8,30 Z" transform="rotate(22.5,50,50)"/>
    <path d="M50,50 L49.2,30 Q50,21 50.8,30 Z" transform="rotate(67.5,50,50)"/>
    <path d="M50,50 L49.2,30 Q50,21 50.8,30 Z" transform="rotate(112.5,50,50)"/>
    <path d="M50,50 L49.2,30 Q50,21 50.8,30 Z" transform="rotate(157.5,50,50)"/>
    <path d="M50,50 L49.2,30 Q50,21 50.8,30 Z" transform="rotate(202.5,50,50)"/>
    <path d="M50,50 L49.2,30 Q50,21 50.8,30 Z" transform="rotate(247.5,50,50)"/>
    <path d="M50,50 L49.2,30 Q50,21 50.8,30 Z" transform="rotate(292.5,50,50)"/>
    <path d="M50,50 L49.2,30 Q50,21 50.8,30 Z" transform="rotate(337.5,50,50)"/>
  </g>
  <circle cx="50" cy="50" r="22" fill="none" stroke="white" stroke-width="1" opacity="0.48"/>
  <g fill="white" opacity="0.95">
    <path d="M50,50 Q46.5,43 50,34 Q53.5,43 50,50" transform="rotate(0,50,50)"/>
    <path d="M50,50 Q46.5,43 50,34 Q53.5,43 50,50" transform="rotate(45,50,50)"/>
    <path d="M50,50 Q46.5,43 50,34 Q53.5,43 50,50" transform="rotate(90,50,50)"/>
    <path d="M50,50 Q46.5,43 50,34 Q53.5,43 50,50" transform="rotate(135,50,50)"/>
    <path d="M50,50 Q46.5,43 50,34 Q53.5,43 50,50" transform="rotate(180,50,50)"/>
    <path d="M50,50 Q46.5,43 50,34 Q53.5,43 50,50" transform="rotate(225,50,50)"/>
    <path d="M50,50 Q46.5,43 50,34 Q53.5,43 50,50" transform="rotate(270,50,50)"/>
    <path d="M50,50 Q46.5,43 50,34 Q53.5,43 50,50" transform="rotate(315,50,50)"/>
  </g>
  <circle cx="50" cy="50" r="7.5" fill="white" opacity="0.98"/>
  <circle cx="48.6" cy="48.6" r="2.8" fill="white" opacity="0.52"/>
</svg>
